<svg width="470" height="470" viewBox="0 0 470 470" fill="none" xmlns="http://www.w3.org/2000/svg">
<circle cx="235" cy="235" r="80.4794" fill="#F6F8FC"/>
<path d="M470 215.685C470 158.482 445.241 103.621 401.17 63.1727C357.099 22.7239 297.326 4.31872e-06 235 0C172.674 -4.31872e-06 112.901 22.7239 68.8299 63.1726C24.7589 103.621 9.41095e-06 158.482 0 215.685L117.5 215.685C117.5 187.083 129.879 159.653 151.915 139.429C173.95 119.204 203.837 107.842 235 107.842C266.163 107.842 296.049 119.204 318.085 139.429C340.121 159.653 352.5 187.083 352.5 215.685H470Z" fill="#F6F8FC"/>
<path d="M1.16618e-05 254.315C1.66627e-05 311.518 24.7589 366.379 68.8299 406.827C112.901 447.276 172.674 470 235 470C297.326 470 357.099 447.276 401.17 406.827C445.241 366.379 470 311.518 470 254.315L352.5 254.315C352.5 282.917 340.121 310.347 318.085 330.571C296.05 350.796 266.163 362.158 235 362.158C203.837 362.158 173.95 350.796 151.915 330.571C129.879 310.347 117.5 282.917 117.5 254.315L1.16618e-05 254.315Z" fill="#F6F8FC"/>
</svg>
