<svg width="234" height="234" viewBox="0 0 234 234" fill="none" xmlns="http://www.w3.org/2000/svg">
<circle cx="117" cy="117" r="40.0685" fill="#F6F8FC"/>
<path d="M234 107.384C234 78.9037 221.673 51.5902 199.731 31.4519C177.79 11.3136 148.03 2.15017e-06 117 0C85.9697 -2.15017e-06 56.2103 11.3136 34.2685 31.4519C12.3268 51.5902 1.04075e-05 78.9036 5.72205e-06 107.384L58.5 107.384C58.5 93.1436 64.6634 79.4869 75.6343 69.4177C86.6051 59.3486 101.485 53.6918 117 53.6918C132.515 53.6918 147.395 59.3486 158.366 69.4177C169.337 79.4869 175.5 93.1436 175.5 107.384H234Z" fill="#FF5350"/>
<path d="M5.87102e-06 126.616C8.36081e-06 155.096 12.3268 182.41 34.2685 202.548C56.2103 222.686 85.9697 234 117 234C148.03 234 177.79 222.686 199.731 202.548C221.673 182.41 234 155.096 234 126.616L175.5 126.616C175.5 140.856 169.337 154.513 158.366 164.582C147.395 174.651 132.515 180.308 117 180.308C101.485 180.308 86.6051 174.651 75.6343 164.582C64.6634 154.513 58.5 140.856 58.5 126.616L5.87102e-06 126.616Z" fill="#F6F8FC"/>
</svg>
