<svg width="54" height="52" viewBox="0 0 54 52" fill="none" xmlns="http://www.w3.org/2000/svg">
<path d="M21.6641 12.0243H27.0001C26.4378 13.0685 25.7803 14.0689 25.1645 15.0832C24.8931 15.5302 24.6365 16.1665 24.2029 16.482C23.5579 16.9512 22.3253 16.9757 21.5574 17.2278C19.8512 17.7879 18.2561 18.5314 16.755 19.5132C16.5125 16.5787 14.7741 13.2854 12.8838 11.0751C12.2259 10.3058 11.5073 9.39715 10.5653 8.96552C10.4321 11.9851 7.64076 14.8368 4.58899 15.0832C4.94288 17.4184 6.80437 20.0785 8.43246 21.7282C9.04263 22.3465 9.65214 22.962 10.3518 23.4817C10.6093 23.6731 11.1788 23.9386 11.2492 24.279C11.3429 24.7321 10.557 25.5577 10.3371 25.9473C9.60814 27.2385 9.04826 28.6185 8.71382 30.0609C7.30012 36.1579 11.1328 41.2979 16.4348 44.038C22.7624 47.3081 31.1146 47.2183 37.4586 44.0631C43.1249 41.245 46.7246 35.7089 45.048 29.428C44.5439 27.5395 43.5705 25.8655 42.4744 24.2596C45.9384 22.6329 48.3364 18.535 49.5178 15.0832C46.2677 14.9363 43.8271 11.9681 43.4348 8.96552C42.4798 9.45516 41.6453 10.4623 40.9807 11.286C39.0663 13.6589 37.8279 16.5429 37.2451 19.5132C35.0892 17.9652 31.9428 16.615 29.2412 16.5598C31.1949 14.6448 34.0173 13.1544 35.6443 10.9696H31.3756C33.6587 8.36186 36.0373 5.34929 37.8854 2.42597H30.3084C29.4273 2.42597 27.9404 2.1415 27.1295 2.48961C26.4622 2.7761 25.9624 4.24725 25.6128 4.85193C24.3226 7.08313 22.4474 9.57795 21.6641 12.0243Z" fill="#787D83"/>
<path d="M2.65576 5.28813C2.65576 8.31217 2.89425 11.8725 4.14983 14.6756C7.4664 14.0395 9.69905 11.7749 10.1261 8.45243C7.77065 7.01579 5.46312 5.66177 2.65576 5.28813Z" fill="#787D83"/>
<path d="M50.2396 14.6756C50.906 11.493 51.6269 8.5729 51.6269 5.28813C49.7124 5.54294 47.7478 6.28697 46.0775 7.2318C45.5423 7.53456 44.6828 7.9189 44.3731 8.47074C44.0409 9.06241 44.5384 10.209 44.7834 10.7729C45.7238 12.9385 47.9129 14.3659 50.2396 14.6756Z" fill="#787D83"/>
</svg>
