<svg width="50" height="45" viewBox="0 0 50 45" fill="none" xmlns="http://www.w3.org/2000/svg">
<path d="M19.6641 10.0243H25.0001C24.4378 11.0685 23.7803 12.0689 23.1645 13.0832C22.8931 13.5302 22.6365 14.1665 22.2029 14.482C21.5579 14.9512 20.3253 14.9757 19.5574 15.2278C17.8512 15.7879 16.2561 16.5314 14.755 17.5132C14.5125 14.5787 12.7741 11.2854 10.8838 9.07505C10.2259 8.30579 9.50729 7.39715 8.56527 6.96552C8.43208 9.98511 5.64076 12.8368 2.58899 13.0832C2.94288 15.4184 4.80437 18.0785 6.43246 19.7282C7.04263 20.3465 7.65214 20.962 8.35184 21.4817C8.60932 21.6731 9.1788 21.9386 9.24924 22.279C9.34294 22.7321 8.55696 23.5577 8.3371 23.9473C7.60814 25.2385 7.04826 26.6185 6.71382 28.0609C5.30012 34.1579 9.13281 39.2979 14.4348 42.038C20.7624 45.3081 29.1146 45.2183 35.4586 42.0631C41.1249 39.245 44.7246 33.7089 43.048 27.428C42.5439 25.5395 41.5705 23.8655 40.4744 22.2596C43.9384 20.6329 46.3364 16.535 47.5178 13.0832C44.2677 12.9363 41.8271 9.96812 41.4348 6.96552C40.4798 7.45516 39.6453 8.46231 38.9807 9.28601C37.0663 11.6589 35.8279 14.5429 35.2451 17.5132C33.0892 15.9652 29.9428 14.615 27.2412 14.5598C29.1949 12.6448 32.0173 11.1544 33.6443 8.96958H29.3756C31.6587 6.36186 34.0373 3.34929 35.8854 0.425966H28.3084C27.4273 0.425966 25.9404 0.141496 25.1295 0.489611C24.4622 0.776096 23.9624 2.24725 23.6128 2.85193C22.3226 5.08313 20.4474 7.57795 19.6641 10.0243Z" fill="#787D83"/>
<path d="M0.655762 3.28813C0.655762 6.31217 0.894248 9.87251 2.14983 12.6756C5.4664 12.0395 7.69905 9.77495 8.12612 6.45243C5.77065 5.01579 3.46312 3.66177 0.655762 3.28813Z" fill="#787D83"/>
<path d="M48.2396 12.6756C48.906 9.49301 49.6269 6.5729 49.6269 3.28813C47.7124 3.54294 45.7478 4.28697 44.0775 5.2318C43.5423 5.53456 42.6828 5.9189 42.3731 6.47074C42.0409 7.06241 42.5384 8.20904 42.7834 8.77292C43.7238 10.9385 45.9129 12.3659 48.2396 12.6756Z" fill="#787D83"/>
</svg>
