<svg width="51" height="51" viewBox="0 0 51 51" fill="none" xmlns="http://www.w3.org/2000/svg">
<path d="M25.5 0C11.4176 0 0 11.4176 0 25.5C0 39.5824 11.4176 51 25.5 51C39.5824 51 51 39.5824 51 25.5C51 11.4176 39.5824 0 25.5 0ZM15.929 11.4814C17.7183 11.4814 18.9104 12.6735 18.9104 14.263C18.9104 15.8525 17.7182 17.0446 15.7314 17.0446C13.9421 17.0467 12.75 15.8525 12.75 14.263C12.75 12.6735 13.9421 11.4814 15.929 11.4814ZM19.125 36.125H12.75V19.125H19.125V36.125ZM40.375 36.125H34.374V26.8345C34.374 24.2654 32.7739 23.6725 32.1746 23.6725C31.5754 23.6725 29.5736 24.0678 29.5736 26.8345C29.5736 27.2298 29.5736 36.125 29.5736 36.125H23.375V19.125H29.5757V21.4965C30.3747 20.1131 31.9749 19.125 34.9754 19.125C37.9759 19.125 40.375 21.4965 40.375 26.8345V36.125Z" fill="#444444"/>
</svg>
