<svg width="35" height="35" viewBox="0 0 35 35" fill="none" xmlns="http://www.w3.org/2000/svg">
<circle cx="17.5" cy="17.5" r="5.99315" fill="#787D83"/>
<path d="M35 16.0616C35 11.8018 33.1563 7.71649 29.8744 4.70435C26.5925 1.6922 22.1413 3.21607e-07 17.5 0C12.8587 -3.21607e-07 8.40752 1.6922 5.12563 4.70434C1.84375 7.71649 7.00815e-07 11.8018 0 16.0616L8.75 16.0616C8.75 13.9317 9.67187 11.8891 11.3128 10.383C12.9538 8.87692 15.1794 8.03082 17.5 8.03082C19.8206 8.03082 22.0462 8.87692 23.6872 10.383C25.3281 11.8891 26.25 13.9317 26.25 16.0616H35Z" fill="#787D83"/>
<path d="M2.41054e-06 18.9384C2.78295e-06 23.1982 1.84375 27.2835 5.12563 30.2957C8.40752 33.3078 12.8587 35 17.5 35C22.1413 35 26.5925 33.3078 29.8744 30.2957C33.1563 27.2835 35 23.1982 35 18.9384L26.25 18.9384C26.25 21.0683 25.3281 23.1109 23.6872 24.617C22.0462 26.1231 19.8206 26.9692 17.5 26.9692C15.1794 26.9692 12.9538 26.1231 11.3128 24.617C9.67187 23.1109 8.75 21.0683 8.75 18.9384L2.41054e-06 18.9384Z" fill="#787D83"/>
</svg>
