<svg width="33" height="27" viewBox="0 0 33 27" fill="none" xmlns="http://www.w3.org/2000/svg">
<path d="M16.5 0.300049C13.2583 0.300049 10.2623 1.49881 7.9814 3.41958C7.86936 3.51219 7.77679 3.62609 7.70903 3.75468C7.64127 3.88328 7.59967 4.02403 7.58663 4.16881C7.57359 4.31358 7.58937 4.4595 7.63306 4.59813C7.67674 4.73677 7.74747 4.86538 7.84115 4.97652C7.93483 5.08766 8.04961 5.17913 8.17886 5.24565C8.3081 5.31217 8.44924 5.35242 8.59413 5.36407C8.73902 5.37572 8.88479 5.35854 9.023 5.31353C9.16121 5.26851 9.28913 5.19655 9.39937 5.10181C11.2984 3.50258 13.8016 2.50005 16.5 2.50005C22.2492 2.50005 26.9023 6.80503 27.4462 12.4H24.2L28.6 19L33 12.4H29.6441C29.0853 5.61839 23.4277 0.300049 16.5 0.300049ZM4.73081 6.90005L0.330811 13.5H3.29995C3.29995 20.7991 9.20088 26.7001 16.5 26.7001C19.7416 26.7001 22.7376 25.5013 25.0185 23.5805C25.1305 23.4879 25.2231 23.374 25.2909 23.2454C25.3586 23.1168 25.4002 22.9761 25.4133 22.8313C25.4263 22.6865 25.4106 22.5406 25.3669 22.402C25.3232 22.2633 25.2525 22.1347 25.1588 22.0236C25.0651 21.9124 24.9503 21.8209 24.8211 21.7544C24.6918 21.6879 24.5507 21.6477 24.4058 21.636C24.2609 21.6244 24.1151 21.6415 23.9769 21.6866C23.8387 21.7316 23.7108 21.8035 23.6005 21.8983C21.7015 23.4975 19.1983 24.5 16.5 24.5C10.379 24.5 5.49995 19.621 5.49995 13.5H9.13081L4.73081 6.90005Z" fill="white"/>
</svg>
